<svg xmlns="http://www.w3.org/2000/svg" version="1.1" xmlns:xlink="http://www.w3.org/1999/xlink" width="1500" height="195" viewBox="0 0 1500 195"><svg xml:space="preserve" width="1500" height="195" data-version="2" data-id="lg_JLqMzA0ZsmGC7OGFzm" viewBox="0 0 548 195" x="0" y="0"><rect width="100%" height="100%" fill="transparent"></rect><path fill="#301c3b" d="M60.74 4.575v184.85H23.75V41.575H5.31v-37z"></path><rect width="55.43" height="184.85" x="-27.71" y="-92.42" fill="none" rx="0" ry="0" transform="translate(33.52 97.5)"></rect><path fill="#301c3b" d="M202.67 97.005q0-30.81-10.25-45.76-10.25-14.96-28.55-14.96-18.18 0-28.23 14.83-10.06 14.82-10.06 45.89 0 30.81 10.06 45.76 10.05 14.95 28.23 14.95 9.15 0 16.37-3.67 7.22-3.67 12.18-11.15t7.61-18.89q2.64-11.4 2.64-27m35.19 0q0 26.29-5.8 44.47t-15.85 29.39q-10.06 11.22-23.53 16.18-13.47 4.96-28.81 4.96-15.34 0-28.81-5.09-13.47-5.09-23.46-16.37-9.99-11.28-15.79-29.39-5.8-18.11-5.8-44.15 0-26.3 5.8-44.41 5.8-18.11 15.79-29.33 9.99-11.21 23.46-16.24 13.47-5.03 28.81-5.03 15.34 0 28.81 5.1 13.47 5.09 23.53 16.43 10.05 11.35 15.85 29.39 5.8 18.05 5.8 44.09"></path><rect width="147.85" height="190.01" x="-73.92" y="-95" fill="none" rx="0" ry="0" transform="translate(164.44 97.5)"></rect><path fill="#301c3b" d="M389.46 60.005q0 11.47-4.39 21.59-4.38 10.12-11.92 17.66-7.54 7.54-17.6 11.93-10.05 4.38-21.52 4.38h-18.57q-3.86 0-7.22 1.42-3.35 1.42-5.86 3.93-2.51 2.51-3.93 5.87-1.42 3.35-1.42 7.21v18.44h87.4v36.99h-124.4v-55.43q0-11.47 4.39-21.59 4.38-10.12 11.92-17.66 7.54-7.54 17.6-11.86 10.05-4.32 21.52-4.32h18.57q3.86 0 7.21-1.41 3.36-1.42 5.87-3.94 2.51-2.51 3.93-5.92 1.42-3.42 1.42-7.29t-1.42-7.22q-1.42-3.35-3.93-5.86-2.51-2.52-5.87-3.93-3.35-1.42-7.21-1.42h-66v-37h66q11.47 0 21.52 4.39 10.06 4.38 17.6 11.92 7.54 7.54 11.92 17.59 4.39 10.06 4.39 21.53"></path><rect width="129.43" height="184.85" x="-64.72" y="-92.42" fill="none" rx="0" ry="0" transform="translate(325.25 97.5)"></rect><path fill="#301c3b" d="M541.69 133.995q0 11.48-4.38 21.53-4.38 10.06-11.92 17.6-7.54 7.54-17.6 11.92-10.05 4.38-21.53 4.38h-73.99v-36.99h73.99q3.87 0 7.22-1.42 3.35-1.42 5.87-3.93 2.51-2.52 3.93-5.87 1.42-3.35 1.42-7.22 0-3.86-1.42-7.21-1.42-3.36-3.93-5.87-2.52-2.51-5.87-3.93-3.35-1.42-7.22-1.42h-50.4v-37h50.4q3.87 0 7.22-1.41 3.35-1.42 5.87-3.94 2.51-2.51 3.93-5.92 1.42-3.42 1.42-7.29t-1.42-7.22q-1.42-3.35-3.93-5.86-2.52-2.52-5.87-3.93-3.35-1.42-7.22-1.42h-73.99v-37h73.99q11.48 0 21.53 4.39 10.06 4.38 17.6 11.92 7.54 7.54 11.92 17.59 4.38 10.06 4.38 21.53 0 10.19-3.73 19.79-3.74 9.6-10.58 17.21 6.84 7.6 10.58 17.21 3.73 9.6 3.73 19.78"></path><rect width="129.42" height="184.85" x="-64.71" y="-92.42" fill="none" rx="0" ry="0" transform="translate(477.48 97.5)"></rect></svg></svg>